<?xml version="1.0" encoding="UTF-8"?>
<!DOCTYPE svg PUBLIC "-//W3C//DTD SVG 1.1//EN" "http://www.w3.org/Graphics/SVG/1.1/DTD/svg11.dtd">
<svg version="1.1" xmlns="http://www.w3.org/2000/svg" xmlns:xlink="http://www.w3.org/1999/xlink" x="0" y="0" width="144.039" height="68" viewBox="0, 0, 144.039, 68">
  <g id="Layer_1">
    <path d="M53.66,45.73 Q53.66,50.23 50.509,53.41 Q47.36,56.59 42.86,56.59 Q38.36,56.59 35.119,53.35 L35.119,53.29 Q31.699,56.59 27.319,56.59 Q22.819,56.59 19.639,53.41 Q16.459,50.23 16.459,45.73 Q16.459,41.05 19.879,37.93 Q16.459,34.63 16.459,30.13 Q16.459,25.69 19.549,22.54 Q22.639,19.39 27.08,19.39 Q31.58,19.39 35.059,22.57 Q38.18,19.27 42.799,19.27 Q47.239,19.27 50.45,22.45 Q53.66,25.63 53.66,30.13 Q53.66,34.39 50.479,37.75 Q50.419,37.81 50.239,37.93 Q53.66,41.17 53.66,45.73 z M46.759,45.73 L46.819,45.73 Q46.819,44.11 45.68,42.97 L40.579,37.93 L45.619,32.89 Q46.819,31.69 46.819,30.13 Q46.819,28.51 45.649,27.34 Q44.479,26.17 42.86,26.17 Q41.239,26.17 40.04,27.37 L35.119,32.35 L30.139,27.37 Q28.939,26.17 27.319,26.17 Q25.699,26.17 24.529,27.34 Q23.359,28.51 23.359,30.13 Q23.359,31.75 24.5,32.89 L29.539,37.93 L24.559,42.97 Q23.359,44.17 23.359,45.73 Q23.359,47.41 24.5,48.55 Q25.639,49.69 27.259,49.69 Q28.939,49.69 30.08,48.55 L35.059,43.51 L39.979,48.55 Q41.119,49.69 42.799,49.69 Q44.419,49.69 45.59,48.55 Q46.759,47.41 46.759,45.73 z" fill="#ffffff"/>
    <path d="M93.02,37.99 Q93.02,39.97 92.299,42.55 Q92.959,44.53 92.959,45.79 Q92.959,50.23 89.81,53.41 Q86.66,56.59 82.219,56.59 L66.919,56.59 Q62.479,56.59 59.269,53.41 Q56.059,50.23 56.059,45.79 Q56.059,41.23 59.479,37.99 Q56.059,34.69 56.059,30.19 Q56.059,25.75 59.239,22.57 Q62.419,19.39 66.859,19.39 L74.359,19.39 Q82.039,19.39 87.529,24.85 Q93.02,30.31 93.02,37.99 z M86.06,45.79 L86.119,45.79 Q86.119,44.11 84.919,43.03 Q86.119,40.33 86.119,37.99 Q86.119,33.13 82.669,29.71 Q79.219,26.29 74.419,26.29 L66.919,26.29 Q65.299,26.29 64.13,27.43 Q62.959,28.57 62.959,30.19 Q62.959,31.81 64.099,32.98 Q65.239,34.15 66.859,34.15 L74.359,34.15 Q75.919,34.15 77.09,35.29 Q78.259,36.43 78.259,37.99 Q78.259,39.55 77.119,40.69 Q75.979,41.83 74.419,41.83 L66.919,41.83 Q65.299,41.83 64.099,43 Q62.899,44.17 62.899,45.79 Q62.899,47.41 64.069,48.55 Q65.239,49.69 66.859,49.69 L82.16,49.69 Q83.779,49.69 84.919,48.55 Q86.06,47.41 86.06,45.79 z" fill="#ffffff"/>
    <path d="M127.58,38.05 Q127.58,42.49 124.4,45.67 Q121.22,48.85 116.78,48.85 L116.299,48.85 Q115.28,52.27 112.46,54.43 Q109.64,56.59 106.1,56.59 Q101.66,56.59 98.45,53.41 Q95.24,50.23 95.24,45.79 L95.24,30.01 Q95.24,22.33 100.7,16.87 Q106.16,11.41 113.84,11.41 L116.78,11.41 Q121.22,11.41 124.4,14.59 Q127.58,17.77 127.58,22.21 Q127.58,26.89 124.04,30.13 Q127.58,33.13 127.58,38.05 z M120.68,38.05 Q120.68,36.37 119.54,35.23 Q118.4,34.09 116.78,34.09 L110,34.09 L110,30.01 Q110,28.45 111.14,27.31 Q112.28,26.17 113.84,26.17 L116.78,26.17 Q118.4,26.17 119.54,25.03 Q120.68,23.89 120.68,22.21 Q120.68,20.59 119.54,19.45 Q118.4,18.31 116.78,18.31 L113.9,18.31 Q109.04,18.31 105.59,21.76 Q102.14,25.21 102.14,30.01 L102.14,45.79 Q102.14,47.41 103.28,48.55 Q104.42,49.69 106.04,49.69 Q107.66,49.69 108.83,48.55 Q110,47.41 110,45.79 L110,41.95 L116.78,41.95 Q118.4,41.95 119.54,40.81 Q120.68,39.67 120.68,38.05 z" fill="#ffffff"/>
  </g>
</svg>
